<svg xmlns="http://www.w3.org/2000/svg" width="273" height="62" fill="none" viewBox="0 0 273 62">
  <path fill="#231F20" d="m84.548 47.708 1.382 2.816 1.382-2.816h.654v3.45h-.571v-2.395l-1.174 2.395h-.598l-1.174-2.395v2.395h-.571v-3.45h.67Zm7.013.525h-1.808v.935h1.772v.525h-1.772v.94h1.808v.524h-2.379v-3.45h2.38v.526Zm.785 2.924 1.631-1.724-1.631-1.725h.727l1.377 1.45v-1.45h.572v1.45l1.376-1.45h.728l-1.632 1.725 1.632 1.724h-.749l-1.355-1.428v1.428h-.572V49.73l-1.356 1.428h-.748Zm8.385 0h-.571v-2.924h-1.793v2.925h-.571v-3.45h2.935v3.45Zm3.699-3.153c.197.197.301.442.301.748 0 .307-.098.55-.301.748-.197.198-.488.291-.878.291h-1.091v1.372h-.571v-3.45h1.662c.385 0 .675.099.878.291Zm-.436 1.127c.109-.088.161-.218.161-.384s-.052-.291-.161-.38c-.109-.088-.26-.13-.458-.13h-1.07v1.03h1.07c.198 0 .349-.042.458-.13v-.006Zm4.156-.898h-1.808v.935h1.771v.525h-1.771v.94h1.808v.524h-2.38v-3.45h2.38v.526Zm4.483 3.688h-.566v-.764h-2.53v.764h-.566v-1.288h.332c.25-.26.374-.717.374-1.372v-1.553h2.484v2.925h.472v1.288Zm-2.384-3.688v1.023c0 .618-.089 1.075-.26 1.377h1.6v-2.4h-1.34Zm3.907-.525 1.381 2.816 1.382-2.816h.655v3.45h-.571v-2.395l-1.175 2.395h-.597l-1.174-2.395v2.395h-.572v-3.45h.671Zm7.013.525h-1.808v.935h1.772v.525h-1.772v.94h1.808v.524h-2.379v-3.45h2.379v.526Zm.863-.525h2.888v.525h-1.158v2.925h-.572v-2.925h-1.158v-.525Zm6.634 3.449h-.572v-1.464h-1.849v1.465h-.572v-3.45h.572v1.46h1.849v-1.46h.572v3.45Zm1.621-.779-.343.78h-.587l1.506-3.45h.588l1.506 3.45h-.608l-.343-.78h-1.719Zm1.491-.525-.629-1.439-.634 1.44h1.263Zm1.564-1.106c0-.301.098-.55.301-.748.197-.198.493-.291.878-.291h1.662v3.45h-.571v-1.372h-.639l-1.044 1.371h-.712l1.06-1.387c-.307-.036-.541-.15-.696-.343a1.03 1.03 0 0 1-.234-.68h-.005Zm.737-.38a.465.465 0 0 0-.161.38.48.48 0 0 0 .161.384c.109.089.265.13.463.13h1.07v-1.028h-1.07c-.198 0-.354.041-.463.13v.005Zm5.362-.207c.337-.348.763-.52 1.278-.52.514 0 .935.172 1.278.52.338.348.504.769.504 1.273 0 .504-.172.925-.504 1.273-.338.348-.764.52-1.278.52-.515 0-.941-.172-1.278-.52a1.754 1.754 0 0 1-.509-1.273c0-.504.171-.925.509-1.273Zm.41 2.177c.229.244.52.363.868.363s.634-.12.867-.363c.229-.245.349-.546.349-.904 0-.359-.115-.66-.349-.904a1.136 1.136 0 0 0-.867-.364c-.348 0-.634.12-.868.364a1.28 1.28 0 0 0-.348.904c0 .358.114.66.348.904Zm3.803-2.629h2.489v3.45h-.572v-2.925h-1.345v1.09c0 .167 0 .312-.011.437a4.987 4.987 0 0 1-.041.42 1.448 1.448 0 0 1-.104.39 1.5 1.5 0 0 1-.182.302.756.756 0 0 1-.286.218 1.09 1.09 0 0 1-.41.073h-.27v-.525h.171a.488.488 0 0 0 .234-.052.371.371 0 0 0 .156-.15 1.3 1.3 0 0 0 .098-.208c.026-.068.042-.162.052-.27.011-.11.016-.203.021-.276.005-.073 0-.166 0-.286v-1.688Zm3.574 0h.572v2.608l1.865-2.608h.597v3.45h-.571V48.55l-1.86 2.608h-.603v-3.45Zm4.759 0 1.382 2.816 1.382-2.816h.655v3.45h-.572v-2.395l-1.174 2.395h-.597l-1.174-2.395v2.395h-.572v-3.45h.67Zm7.57 3.449h-.572v-2.924h-1.792v2.925h-.572v-3.45h2.936v3.45Zm1.158-3.449h.572v2.608l1.865-2.608h.597v3.45h-.571V48.55l-1.86 2.608h-.603v-3.45Zm4.598 2.67-.343.78h-.587l1.507-3.45h.587l1.506 3.45h-.607l-.343-.78h-1.72Zm1.491-.525-.629-1.439-.633 1.44h1.262Zm5.039 2.068h-.566v-.764h-2.53v.764h-.566v-1.288h.332c.25-.26.374-.717.374-1.372v-1.553h2.484v2.925h.472v1.288Zm-2.384-3.688v1.023c0 .618-.088 1.075-.26 1.377h1.6v-2.4h-1.34Zm3.746 2.145-.343.78h-.587l1.506-3.45h.587l1.507 3.45h-.608l-.343-.78h-1.719Zm1.491-.525-.629-1.439-.634 1.44h1.263ZM85.145 55.86l.972-1.918h.582l-1.325 2.645c-.11.223-.203.384-.27.483a.746.746 0 0 1-.27.239.876.876 0 0 1-.41.083h-.411v-.525h.343c.114 0 .208-.02.275-.067a.529.529 0 0 0 .177-.224l.052-.114-1.294-2.52h.592l.987 1.917Zm2.229-1.918h.577v.998c0 .239.062.41.197.509.13.099.348.15.65.15.3 0 .592-.03.888-.088v-1.569h.577v3.45h-.577v-1.356a4.557 4.557 0 0 1-.868.088c-.498 0-.862-.093-1.09-.286-.23-.192-.349-.488-.349-.893v-1.003h-.005Zm4.421 2.67-.343.78h-.587l1.507-3.45h.587l1.507 3.45h-.608l-.343-.78h-1.72Zm1.491-.524-.628-1.44-.634 1.44h1.262Zm4.224.779h1.366v-2.925h.572v2.925h.467v1.289h-.566v-.764h-4.348v-3.45h.571v2.925h1.367v-2.925h.571v2.925Zm3.382-2.925h.572v2.608l1.865-2.608h.597v3.45h-.571v-2.608l-1.86 2.608h-.603v-3.45Zm6.208 3.45-.914-1.273-.914 1.273h-.639l1.231-1.72-1.231-1.73h.659l.904 1.268.91-1.268h.649l-1.236 1.72 1.236 1.73h-.655Zm3.159-2.992c-.348 0-.634.119-.862.358-.229.239-.343.54-.343.909s.114.665.343.904c.228.239.514.364.862.364.379 0 .681-.151.904-.447h.629c-.141.301-.343.54-.608.712-.265.171-.572.26-.925.26-.504 0-.93-.172-1.268-.51a1.754 1.754 0 0 1-.509-1.278c0-.509.172-.94.509-1.283.338-.343.764-.51 1.268-.51.348 0 .66.09.92.26.265.177.467.411.608.717h-.629a1.068 1.068 0 0 0-.904-.451l.005-.006Zm2.385.581c0-.301.098-.55.301-.748.197-.197.488-.29.873-.29h1.662v3.449h-.571V56.02h-.639l-1.044 1.372h-.712l1.06-1.387c-.307-.037-.541-.151-.696-.343a1.03 1.03 0 0 1-.234-.68Zm.737-.379c-.109.088-.161.218-.161.38a.48.48 0 0 0 .161.384c.11.088.26.13.458.13h1.07v-1.03h-1.07c-.198 0-.348.042-.458.13v.006Zm6.837-.364c.198.198.302.442.302.748a.99.99 0 0 1-.302.748c-.197.198-.488.291-.878.291h-1.091v1.372h-.571v-3.45h1.662c.385 0 .676.1.878.291Zm-.436 1.128c.109-.089.161-.218.161-.385 0-.166-.052-.29-.161-.379-.109-.088-.26-.13-.457-.13h-1.07v1.029h1.07c.197 0 .348-.042.457-.13v-.005Zm3.954-1.512v.4h.301c.431 0 .79.125 1.075.374.286.25.426.582.426 1.003 0 .42-.14.758-.426 1.008-.285.249-.644.374-1.075.374h-.301v.467h-.572v-.467h-.301c-.431 0-.79-.125-1.076-.374-.285-.25-.426-.588-.426-1.008 0-.421.141-.754.426-1.003.286-.25.645-.374 1.076-.374h.301v-.4h.572Zm-.873 2.634h.301v-1.71h-.301c-.26 0-.478.073-.66.214-.182.145-.27.358-.27.639 0 .28.088.493.27.639.182.145.4.218.66.218Zm.873 0h.301c.26 0 .478-.073.66-.218.182-.146.27-.359.27-.64 0-.28-.088-.493-.27-.638a1.017 1.017 0 0 0-.66-.213h-.301v1.709Zm3.693-2.546h.572v2.608l1.865-2.608h.597v3.45h-.571v-2.608l-1.86 2.608h-.603v-3.45Zm6.884.458c-.348 0-.634.119-.862.358-.229.239-.343.54-.343.909s.114.665.343.904c.228.239.514.364.862.364.379 0 .681-.151.904-.447h.629c-.141.301-.343.54-.608.712-.265.171-.572.26-.925.26-.504 0-.93-.172-1.268-.51-.337-.338-.509-.769-.509-1.278s.172-.94.509-1.283c.338-.343.764-.51 1.268-.51.348 0 .66.09.925.26.265.177.467.411.608.717h-.629a1.067 1.067 0 0 0-.904-.451v-.006Zm2.239-.458h2.889v.525h-1.159v2.925h-.571v-2.925h-1.159v-.525Zm6.183.296c.197.198.296.442.296.748 0 .307-.099.551-.296.748-.198.198-.494.291-.878.291h-1.091v1.372h-.572v-3.45h1.663c.384 0 .675.1.878.291Zm-.437 1.128c.109-.089.161-.218.161-.385 0-.166-.052-.29-.161-.379-.109-.088-.265-.13-.462-.13h-1.07v1.029h1.07c.197 0 .348-.042.462-.13v-.005Zm2.286 1.246-.343.78h-.587l1.507-3.45h.587l1.506 3.45h-.607l-.343-.78h-1.72Zm1.491-.524-.629-1.44-.633 1.44h1.262Zm4.707 1.304h-.571v-1.465h-1.85v1.465h-.571v-3.45h.571v1.46h1.85v-1.46h.571v3.45Zm4.858-1.829c.207.203.306.457.306.764 0 .306-.104.56-.306.764-.203.202-.504.3-.899.3h-1.626v-3.449h2.597v.525h-2.026v.795h1.055c.395 0 .696.099.899.301Zm-.265.764a.49.49 0 0 0-.172-.4c-.114-.094-.28-.14-.483-.14h-1.034v1.08h1.034c.213 0 .374-.047.488-.14a.488.488 0 0 0 .172-.4h-.005Zm3.938-2.089c.197.198.296.442.296.748 0 .307-.099.551-.296.748-.198.198-.494.291-.878.291h-1.091v1.372h-.572v-3.45h1.663c.384 0 .675.1.878.291Zm-.437 1.128c.109-.089.161-.218.161-.385 0-.166-.052-.29-.161-.379-.109-.088-.265-.13-.462-.13h-1.07v1.029h1.07c.197 0 .348-.042.462-.13v-.005Zm1.777-1.424h.571v2.608l1.866-2.608h.597v3.45h-.572v-2.608l-1.859 2.608h-.603v-3.45Zm5.133 1.725 1.766 1.725h-.763l-1.476-1.429v1.429h-.571v-3.45h.571v1.444l1.496-1.444h.743l-1.766 1.725Zm3.917-1.267c-.348 0-.634.119-.862.358-.229.239-.343.54-.343.909s.114.665.343.904c.228.239.514.364.862.364.379 0 .681-.151.904-.447h.629c-.141.301-.343.54-.608.712-.265.171-.572.26-.925.26-.504 0-.93-.172-1.268-.51-.337-.338-.509-.769-.509-1.278s.172-.94.509-1.283c.338-.343.764-.51 1.268-.51.348 0 .66.09.925.26.265.177.467.411.608.717h-.629a1.067 1.067 0 0 0-.904-.451v-.006Z"/>
  <path fill="#0A0E29" d="M83.748 25.628h1.486v12.438l8.925-12.438h1.834v14.313h-1.486V27.524l-8.9 12.417h-1.854V25.628h-.005Zm27.716 14.313h-1.485v-6.468h-9.097v6.468h-1.486V25.628h1.486v6.489h9.097v-6.489h1.485v14.313Zm2.047-14.313h11.705v1.356h-5.107v12.952h-1.486V26.984h-5.106v-1.356h-.006Zm23.275 1.362h-8.037v5.127h7.886v1.356h-7.886v5.107h8.037v1.356h-9.528V25.623h9.528v1.366Zm4.312-1.362h9.788v14.313H149.4v-12.93h-6.811v5.127c0 .675 0 1.205-.01 1.584-.011.38-.031.889-.073 1.517-.042.634-.109 1.133-.203 1.497-.093.368-.228.779-.4 1.241-.171.463-.389.816-.644 1.065a3.28 3.28 0 0 1-2.307.894h-.8V38.58h.494c.53 0 .961-.125 1.294-.38.332-.249.581-.67.753-1.262a8.99 8.99 0 0 0 .332-1.907c.052-.68.073-1.584.073-2.706v-6.702.005Zm14.552 0h9.788v14.313h-1.486v-12.93h-6.811v5.127c0 .675 0 1.205-.01 1.584-.011.38-.032.889-.073 1.517-.042.634-.109 1.133-.203 1.497-.093.368-.228.779-.4 1.241-.171.463-.389.816-.644 1.065a3.292 3.292 0 0 1-2.307.894h-.8V38.58h.494c.53 0 .961-.125 1.293-.38.333-.249.582-.67.754-1.262a9.054 9.054 0 0 0 .332-1.907c.052-.68.073-1.584.073-2.706v-6.702.005Zm22.714 1.362h-8.038v5.127h7.887v1.356h-7.887v5.107h8.038v1.356h-9.529V25.623h9.529v1.366Zm5.797 5.797 7.996 7.154h-2.026l-7.331-6.442v6.442h-1.486V25.628h1.486v6.38l7.242-6.38h2.115l-7.996 7.154v.005Zm8.687-7.159h11.705v1.356h-5.107v12.952h-1.486V26.984h-5.107v-1.356h-.005Z"/>
  <path fill="#0A0E29" fill-rule="evenodd" d="M94.533 6.707 88.69 20.578h-2.697l5.845-13.87h2.696Z" clip-rule="evenodd"/>
  <path fill="#0A0E29" d="M97.177 6.707h-2.483v13.871h2.483V6.708Zm-11.221 0h-2.484v13.871h2.484V6.708Z"/>
  <path fill="#0A0E29" fill-rule="evenodd" d="M225.105 6.707h-2.483v5.694h-7.855V6.707h-2.484v13.871h2.484v-5.694h7.855v5.694h2.483V6.708ZM201.669 9.2v3.123h8.947v2.494h-8.947l.068 3.273h9.071v2.488h-11.627V6.708h11.824V9.2h-9.336Zm-29.877-2.493h12.51V9.15h-5.034v11.43h-2.442V9.148h-5.034V6.707Zm-65.762-.249a7.184 7.184 0 0 0-7.185 7.185 7.184 7.184 0 0 0 7.185 7.185 7.19 7.19 0 0 0 6.868-5.07h-2.67a4.701 4.701 0 1 1 0-4.229h2.67a7.19 7.19 0 0 0-6.868-5.071Zm42.03 0a7.184 7.184 0 0 0-7.185 7.185 7.184 7.184 0 0 0 7.185 7.185 7.19 7.19 0 0 0 6.868-5.07h-2.671a4.7 4.7 0 0 1-8.899-2.114 4.7 4.7 0 0 1 8.899-2.116h2.671a7.19 7.19 0 0 0-6.868-5.07Z" clip-rule="evenodd"/>
  <path fill="#0A0E29" d="M185.969 20.578V6.708h6.219c1.6 0 2.805.41 3.626 1.23.619.624.93 1.403.93 2.338 0 1.377-.66 2.406-1.979 3.091 1.834.624 2.753 1.756 2.753 3.408 0 1.216-.462 2.157-1.387 2.816-.925.66-2.171.992-3.74.992h-6.416l-.006-.005Zm2.395-8.026h3.331c.805 0 1.444-.161 1.911-.483.468-.323.702-.8.702-1.44 0-.555-.213-.987-.634-1.298-.421-.312-1.024-.468-1.803-.468h-3.507v3.689Zm0 5.87h4.042c.847 0 1.502-.166 1.969-.493.468-.333.702-.81.702-1.444 0-1.242-.951-1.866-2.853-1.866h-3.86v3.803Z"/>
  <path fill="#0A0E29" fill-rule="evenodd" d="m270.356 6.743-5.845 13.877h-2.696l5.844-13.877h2.697Z" clip-rule="evenodd"/>
  <path fill="#0A0E29" d="M273 6.743h-2.483v13.872H273V6.743Zm-11.222 0h-2.483v13.872h2.483V6.743Zm3.434-3.584h-2.473v3.34h2.473V3.16ZM114.566 20.578V6.708h2.447v13.87h-2.447Z"/>
  <path fill="#0A0E29" fill-rule="evenodd" d="M123.58 6.707h2.867l-6.213 7.04 6.042 6.831h-2.868l-6.042-6.831v-.021l6.214-7.019Z" clip-rule="evenodd"/>
  <path fill="#0A0E29" d="m136.854 14.77 4.021-8.063h-2.676l-3.579 7.6-.073.151-4.162-7.75h-2.784l3.803 6.862 1.927 3.278-1.922 3.73h2.535l1.59-3.174c.021-.047.047-.088.068-.13l1.241-2.488v-.01h.005l.006-.006Z"/>
  <path fill="#0A0E29" fill-rule="evenodd" d="M243.751 20.578h-2.489V6.708h2.489v13.87Z" clip-rule="evenodd"/>
  <path fill="#0A0E29" d="M249.081 11.113c1.309 0 2.489.524 3.351 1.392.842.862 1.392 2.047 1.392 3.35 0 1.305-.55 2.49-1.392 3.331a4.724 4.724 0 0 1-3.351 1.392h-7.798v-9.465h7.798Zm0 2.426h-5.377v4.618h5.377c.634 0 1.221-.254 1.647-.675.4-.42.675-.992.675-1.62 0-.63-.275-1.222-.675-1.648a2.334 2.334 0 0 0-1.647-.675Z"/>
  <path fill="#0A0E29" fill-rule="evenodd" d="M257.622 20.578h-2.488V6.708h2.488v13.87ZM163.78 6.458a7.184 7.184 0 0 0-7.185 7.185 7.184 7.184 0 0 0 7.185 7.185 7.19 7.19 0 0 0 6.869-5.07h-2.671a4.7 4.7 0 0 1-8.899-2.114 4.7 4.7 0 0 1 8.899-2.116h2.671a7.19 7.19 0 0 0-6.869-5.07Zm75.815.249h-2.484v5.694h-7.855V6.707h-2.483v13.871h2.483v-5.694h7.855v5.694h2.484V6.708Z" clip-rule="evenodd"/>
  <path fill="#EE404F" fill-rule="evenodd" d="M62.406 32.948C62.406 48.991 49.396 62 33.354 62V47.474c8.021 0 14.526-6.504 14.526-14.526h14.526Zm-62 0v14.526c8.021 0 14.526 6.505 14.526 14.526h14.525v-.104C29.4 45.9 16.418 32.948.407 32.948Zm0-3.896C.406 13.009 13.415 0 29.458 0v14.526c-8.022 0-14.526 6.504-14.526 14.526H.406Zm62 0V14.526C54.384 14.526 47.88 8.02 47.88 0H33.354v.104c.057 15.996 13.04 28.948 29.052 28.948Z" clip-rule="evenodd"/>
  <path fill="#EE404F" d="M31.404 20.729 21.132 31l10.272 10.271L41.675 31 31.404 20.729Z"/>
</svg>
