<svg xmlns="http://www.w3.org/2000/svg" width="242" height="62" fill="none" viewBox="0 0 242 62">
  <path fill="#FFB636" d="M37.803 24.801H25.405v12.398h12.398V24.801Z"/>
  <path fill="#FFB636" fill-rule="evenodd" d="M62.604 24.801C62.604 11.153 51.576.078 37.943 0h-.14v12.398c6.848 0 12.398 5.55 12.398 12.398h12.398l.005.005ZM25.25 62h.155V49.602c-6.848 0-12.398-5.55-12.398-12.398H.61v.088c.047 13.607 11.05 24.63 24.646 24.713L25.25 62Zm12.553 0c13.664 0 24.744-11.05 24.801-24.698V37.2H50.206c0 6.848-5.55 12.398-12.398 12.398v12.398l-.005.005ZM25.405 0C11.72 0 .63 11.08.604 24.755v.046h12.398c0-6.848 5.55-12.398 12.398-12.398V0h.005Z" clip-rule="evenodd"/>
  <path fill="#231F20" d="m82.397 47.204 1.375 2.801 1.375-2.8h.65v3.43h-.568v-2.382l-1.168 2.383h-.594l-1.168-2.383v2.383h-.568v-3.432h.666Zm6.977.522h-1.798v.93h1.762v.522h-1.762v.936h1.798v.522h-2.367v-3.432h2.367v.522Zm.78 2.91 1.623-1.716-1.623-1.716h.724l1.37 1.442v-1.442h.568v1.442l1.37-1.442h.723l-1.623 1.716 1.623 1.716h-.744l-1.35-1.422v1.422h-.568v-1.422L90.9 50.636h-.745Zm8.342 0h-.569v-2.91h-1.783v2.91h-.568v-3.432h2.92v3.432Zm3.679-3.143c.196.197.3.44.3.745a.984.984 0 0 1-.3.744c-.196.196-.491.29-.873.29h-1.086v1.364h-.568v-3.432h1.654c.382 0 .672.098.873.29Zm-.434 1.122c.108-.088.16-.217.16-.382 0-.166-.052-.29-.16-.378-.109-.088-.258-.129-.455-.129h-1.064v1.023h1.064c.197 0 .346-.041.455-.129v-.005Zm4.134-.889h-1.798v.93h1.762v.522h-1.762v.936h1.798v.522h-2.367v-3.432h2.367v.522Zm4.46 3.669h-.563v-.76h-2.517v.76h-.563v-1.281h.331c.248-.259.372-.713.372-1.365v-1.545h2.47v2.91h.47v1.281Zm-2.372-3.669v1.018c0 .615-.088 1.07-.258 1.37h1.592v-2.388h-1.334Zm3.886-.522 1.375 2.801 1.375-2.8h.651v3.43h-.568v-2.382l-1.168 2.383h-.595l-1.168-2.383v2.383h-.568v-3.432h.666Zm6.977.522h-1.798v.93h1.762v.522h-1.762v.936h1.798v.522h-2.367v-3.432h2.367v.522Zm.858-.522h2.873v.522h-1.152v2.91h-.568v-2.91h-1.153v-.522Zm6.6 3.432h-.569v-1.458h-1.84v1.458h-.568v-3.432h.568v1.452h1.84v-1.452h.569v3.432Zm1.612-.776-.341.776h-.584l1.499-3.432h.584l1.498 3.432h-.604l-.341-.776h-1.711Zm1.483-.521-.625-1.432-.631 1.432h1.256Zm1.556-1.101c0-.3.098-.548.299-.745.197-.196.491-.289.874-.289h1.654v3.432h-.569V49.27h-.636l-1.038 1.365h-.708l1.054-1.38c-.305-.036-.537-.15-.693-.341a1.025 1.025 0 0 1-.232-.677h-.005Zm.734-.383c-.109.088-.161.217-.161.378 0 .16.052.289.161.382.108.088.263.13.46.13h1.064V47.72h-1.064c-.197 0-.352.041-.46.13v.004Zm5.333-.201c.336-.347.76-.517 1.271-.517.512 0 .93.17 1.272.517.335.346.501.765.501 1.266s-.171.92-.501 1.266c-.336.346-.76.517-1.272.517-.511 0-.935-.17-1.271-.517a1.747 1.747 0 0 1-.507-1.266c0-.501.171-.92.507-1.266Zm.408 2.165c.228.243.517.362.863.362.347 0 .631-.119.863-.362a1.27 1.27 0 0 0 .347-.9c0-.356-.114-.655-.347-.898a1.13 1.13 0 0 0-.863-.362c-.346 0-.63.119-.863.362a1.271 1.271 0 0 0-.346.899c0 .356.114.656.346.9Zm3.783-2.615h2.476v3.432h-.569v-2.91h-1.338v1.085c0 .166 0 .31-.011.434-.005.125-.02.264-.041.42a1.485 1.485 0 0 1-.103.387 1.534 1.534 0 0 1-.181.3.752.752 0 0 1-.285.217 1.084 1.084 0 0 1-.408.072h-.269v-.522h.171a.485.485 0 0 0 .233-.052.367.367 0 0 0 .155-.15c.041-.067.072-.14.098-.206.026-.068.041-.16.051-.27.011-.108.016-.2.021-.273.005-.072 0-.165 0-.284v-1.68Zm3.556 0h.568v2.594l1.855-2.594h.595v3.432h-.569V48.04l-1.85 2.595h-.599v-3.432Zm4.734 0 1.374 2.801 1.375-2.8h.651v3.43h-.568v-2.382l-1.168 2.383h-.595l-1.168-2.383v2.383h-.568v-3.432h.667Zm7.529 3.432h-.568v-2.91h-1.783v2.91h-.569v-3.432h2.92v3.432Zm1.153-3.432h.568v2.594l1.856-2.594h.594v3.432h-.569V48.04l-1.85 2.595h-.599v-3.432Zm4.573 2.656-.341.776h-.584l1.499-3.432h.584l1.499 3.432h-.605l-.341-.776h-1.711Zm1.484-.521-.626-1.432-.63 1.432h1.256Zm5.012 2.056h-.563v-.76h-2.517v.76h-.563v-1.281h.331c.248-.259.372-.713.372-1.365v-1.545h2.47v2.91h.47v1.281Zm-2.372-3.669v1.018c0 .615-.087 1.07-.258 1.37h1.592v-2.388h-1.334Zm3.727 2.134-.342.776h-.584l1.499-3.432h.584l1.499 3.432h-.605l-.341-.776h-1.71Zm1.483-.521-.626-1.432-.63 1.432h1.256Zm-89.08 5.974.966-1.907h.579l-1.318 2.63a3.313 3.313 0 0 1-.274.48.769.769 0 0 1-.263.239.87.87 0 0 1-.409.082h-.408v-.522h.341c.114 0 .207-.02.274-.067a.527.527 0 0 0 .176-.222l.051-.114-1.286-2.506h.589l.982 1.907Zm2.217-1.907h.573v.992c0 .238.062.408.197.506.129.099.346.15.646.15.3 0 .589-.03.883-.088v-1.56h.574v3.431h-.574v-1.349a4.533 4.533 0 0 1-.863.088c-.496 0-.858-.093-1.09-.284-.228-.191-.346-.486-.346-.889v-.997Zm4.398 2.656-.341.775h-.585l1.5-3.431h.583l1.499 3.431h-.605l-.34-.775h-1.711Zm1.483-.522-.626-1.431-.63 1.431h1.256Zm4.201.775h1.36v-2.91h.568v2.91h.465v1.282h-.563v-.76h-4.326v-3.431h.569v2.91h1.359v-2.91h.568v2.91Zm3.365-2.909h.568V56l1.855-2.594h.595v3.431h-.569v-2.594l-1.85 2.594h-.6v-3.431Zm6.175 3.431-.909-1.266-.91 1.266h-.635l1.224-1.71-1.224-1.721h.656l.899 1.26.905-1.26h.646l-1.23 1.71 1.23 1.721h-.652Zm3.143-2.977c-.347 0-.631.12-.858.357-.228.238-.341.538-.341.904 0 .367.113.662.341.9.227.237.511.361.858.361.377 0 .677-.15.899-.444h.625a1.65 1.65 0 0 1-.605.708 1.65 1.65 0 0 1-.919.258c-.502 0-.926-.17-1.261-.506-.336-.336-.507-.765-.507-1.271 0-.507.171-.936.507-1.277.335-.341.759-.506 1.261-.506.346 0 .651.087.914.258.264.176.465.408.605.713h-.625c-.223-.3-.522-.45-.9-.45l.006-.005Zm2.372.58c0-.3.098-.548.299-.745.197-.196.486-.29.869-.29h1.653v3.432h-.568v-1.364h-.636l-1.039 1.364h-.708l1.055-1.38c-.305-.036-.538-.15-.693-.34a1.026 1.026 0 0 1-.232-.678Zm.733-.383a.465.465 0 0 0-.165.377c0 .16.057.29.165.383.109.087.259.129.455.129h1.065v-1.023h-1.065c-.196 0-.346.04-.455.129v.005Zm6.801-.362c.197.197.3.44.3.744a.984.984 0 0 1-.3.745c-.196.196-.485.289-.868.289h-1.085v1.364h-.568v-3.431h1.653c.383 0 .672.098.868.29Zm-.434 1.121a.466.466 0 0 0 .166-.382.456.456 0 0 0-.166-.377c-.108-.088-.258-.13-.454-.13h-1.065v1.024h1.065c.196 0 .346-.041.454-.13v-.005Zm3.933-1.498v.398h.3c.429 0 .785.124 1.07.372.284.248.423.579.423.997 0 .419-.139.755-.423 1.003-.285.248-.641.372-1.07.372h-.3v.465h-.568v-.465h-.3c-.429 0-.786-.124-1.07-.372-.284-.248-.424-.584-.424-1.003 0-.418.14-.75.424-.997.284-.248.641-.372 1.07-.372h.3v-.398h.568Zm-.868 2.62h.3v-1.7h-.3c-.258 0-.475.072-.656.212-.181.144-.269.356-.269.635 0 .28.088.491.269.636.181.145.398.217.656.217Zm.868 0h.3c.258 0 .475-.072.656-.217.181-.145.269-.357.269-.636s-.088-.49-.269-.635a1.011 1.011 0 0 0-.656-.212h-.3v1.7Zm3.675-2.532h.568V56l1.855-2.594h.595v3.431h-.569v-2.594l-1.85 2.594h-.599v-3.431Zm6.847.454c-.346 0-.63.12-.858.357-.227.238-.341.538-.341.904 0 .367.114.662.341.9.228.237.512.361.858.361.377 0 .677-.15.899-.444h.626c-.14.3-.341.537-.605.708-.264.17-.568.258-.92.258-.501 0-.925-.17-1.261-.506-.336-.336-.506-.765-.506-1.271 0-.507.17-.936.506-1.277.336-.341.76-.506 1.261-.506.346 0 .656.087.92.258.264.176.465.408.605.713h-.626c-.222-.3-.522-.45-.899-.45v-.005Zm2.228-.454h2.873v.522h-1.153v2.91h-.568v-2.91h-1.152v-.522Zm6.149.289a1 1 0 0 1 .295.744.999.999 0 0 1-.295.745c-.196.196-.491.289-.873.289h-1.085v1.364h-.569v-3.431h1.654c.382 0 .672.098.873.29Zm-.434 1.121c.109-.087.161-.217.161-.382s-.052-.29-.161-.377c-.108-.088-.263-.13-.46-.13h-1.064v1.024h1.064c.197 0 .347-.041.46-.13v-.005Zm2.274 1.246-.341.775h-.584l1.499-3.431h.584l1.499 3.431h-.605l-.341-.775h-1.711Zm1.483-.522-.625-1.431-.63 1.431h1.255Zm4.683 1.297h-.569V55.38h-1.84v1.457h-.568v-3.431h.568v1.452h1.84v-1.452h.569v3.431Zm4.832-1.819c.206.202.305.455.305.76s-.104.558-.305.76c-.202.201-.502.3-.894.3h-1.618v-3.432h2.584v.522h-2.016v.79h1.05c.392 0 .692.098.894.3Zm-.264.76a.489.489 0 0 0-.17-.398c-.114-.093-.28-.14-.481-.14h-1.029v1.075h1.029c.212 0 .372-.046.486-.14a.489.489 0 0 0 .17-.397h-.005Zm3.917-2.083a1 1 0 0 1 .295.744.999.999 0 0 1-.295.745c-.196.196-.491.289-.873.289h-1.085v1.364h-.569v-3.431h1.654c.382 0 .672.098.873.29Zm-.434 1.121c.109-.087.16-.217.16-.382s-.051-.29-.16-.377c-.108-.088-.263-.13-.46-.13h-1.064v1.024h1.064c.197 0 .347-.041.46-.13v-.005Zm1.768-1.41h.568V56l1.855-2.594h.595v3.431h-.569v-2.594l-1.85 2.594h-.599v-3.431Zm5.106 1.715 1.757 1.716h-.76l-1.468-1.421v1.421h-.568v-3.431h.568v1.436l1.489-1.436h.739l-1.757 1.715Zm3.896-1.261c-.346 0-.63.12-.858.357-.227.238-.341.538-.341.904 0 .367.114.662.341.9.228.237.512.361.858.361.378 0 .677-.15.9-.444h.625c-.14.3-.341.537-.605.708-.263.17-.568.258-.92.258-.501 0-.925-.17-1.261-.506-.336-.336-.506-.765-.506-1.271 0-.507.17-.936.506-1.277.336-.341.76-.506 1.261-.506.347 0 .657.087.92.258.264.176.465.408.605.713h-.625c-.223-.3-.522-.45-.9-.45v-.005Z"/>
  <path fill="#0A0E29" d="M88.62 26.315c-1.675 0-3.06.569-4.16 1.706-1.101 1.137-1.65 2.584-1.65 4.34 0 1.758.549 3.205 1.65 4.342 1.1 1.137 2.485 1.705 4.16 1.705 1.87 0 3.322-.76 4.35-2.274h1.63c-.584 1.117-1.39 2-2.414 2.646-1.023.651-2.212.977-3.57.977-2.057 0-3.789-.713-5.19-2.134-1.4-1.421-2.103-3.179-2.103-5.266 0-2.088.698-3.84 2.104-5.267 1.4-1.42 3.132-2.134 5.188-2.134 1.36 0 2.548.326 3.571.977 1.024.651 1.825 1.535 2.414 2.646h-1.63c-1.029-1.514-2.48-2.274-4.352-2.274v.01Zm8.428-1.075h1.478v12.372l8.879-12.372h1.824v14.238h-1.478V27.127l-8.852 12.351h-1.845V25.24h-.006Zm21.954 1.075c-1.674 0-3.059.569-4.16 1.706s-1.649 2.584-1.649 4.34c0 1.758.548 3.205 1.649 4.342 1.101 1.137 2.486 1.705 4.16 1.705 1.871 0 3.323-.76 4.351-2.274h1.628c-.584 1.117-1.39 2-2.413 2.646-1.023.651-2.212.977-3.571.977-2.057 0-3.788-.713-5.189-2.134-1.4-1.421-2.103-3.179-2.103-5.266 0-2.088.697-3.84 2.103-5.267 1.401-1.42 3.132-2.134 5.189-2.134 1.359 0 2.548.326 3.571.977 1.023.651 1.824 1.535 2.413 2.646h-1.628c-1.028-1.514-2.48-2.274-4.351-2.274v.01Zm7.075-1.075h11.643v1.35h-5.08v12.883h-1.478V26.589h-5.08V25.24h-.005Zm23.152 1.354h-7.995v5.101h7.845v1.349h-7.845v5.08h7.995v1.349h-9.478V25.235h9.478v1.36Zm4.998-1.354L160.723 38l6.325-12.76h2.057v14.238h-1.478V27.364l-5.938 12.114h-1.886l-6.155-12.114v12.114h-1.478V25.24h2.057Zm27.86 7.215c.796.765 1.189 1.741 1.189 2.925 0 1.183-.398 2.165-1.189 2.935-.796.77-1.964 1.158-3.504 1.158h-6.088V25.235h1.479v6.067h4.609c1.546 0 2.714.383 3.504 1.148v.005Zm-.289 2.93c0-.884-.279-1.56-.837-2.026-.559-.465-1.329-.698-2.316-.698h-4.671v5.468h4.671c.987 0 1.757-.227 2.316-.687.558-.455.837-1.142.837-2.057Zm5.209-10.145v14.238h-1.478V25.24h1.478Z"/>
  <path fill="#0A0E29" fill-rule="evenodd" d="M169.038 20.227h-2.625L161.467 6.43h2.625l4.946 13.798ZM158.795 6.429l-4.946 13.798h2.626l4.946-13.798h-2.626Zm-9.235 0-5.814 13.798h-2.682l5.819-13.798h2.677Z" clip-rule="evenodd"/>
  <path fill="#0A0E29" d="M152.191 6.429h-2.471v13.798h2.471V6.43Zm-11.163 0h-2.471v13.798h2.471V6.43Z"/>
  <path fill="#0A0E29" fill-rule="evenodd" d="M210.227 6.429h-2.471v5.664h-7.813V6.429h-2.471v13.798h2.471v-5.664h7.813v5.664h2.471V6.43Zm22.067 2.475v3.111h8.899v2.476h-8.899l.067 3.26h9.023v2.476h-11.566V6.43h11.758v2.475h-9.282Zm-134.346 0v3.111h8.899v2.476h-8.9l.068 3.26h9.028v2.476h-11.57V6.43h11.761v2.475h-9.286Zm85.426-2.475h12.439v2.429h-5.007v11.37h-2.429V8.857h-5.003v-2.43Zm-67.721-.249a7.146 7.146 0 0 0-7.147 7.148 7.146 7.146 0 0 0 7.147 7.148 7.152 7.152 0 0 0 6.832-5.044h-2.656a4.676 4.676 0 0 1-8.853-2.103 4.676 4.676 0 0 1 8.853-2.104h2.656a7.152 7.152 0 0 0-6.832-5.044Zm10.961 14.047h-2.475V6.43h2.475v13.798Zm7.799-13.798h2.491v13.798h-2.491V6.43Z" clip-rule="evenodd"/>
  <path fill="#0A0E29" fill-rule="evenodd" d="M124.139 8.9V6.428h11.473v2.47h-11.473ZM91.188 6.429v2.465h-9.855V6.43h9.855Z" clip-rule="evenodd"/>
  <path fill="#0A0E29" fill-rule="evenodd" d="M83.798 20.227h-2.465V6.43h2.465v13.798Z" clip-rule="evenodd"/>
  <path fill="#0A0E29" d="M89.095 10.806c1.292 0 2.47.538 3.323 1.375v.02a4.64 4.64 0 0 1 0 6.63 4.694 4.694 0 0 1-3.323 1.396h-7.747v-9.42h7.747Zm0 2.414h-5.338v4.6h5.338c.636 0 1.214-.26 1.633-.678.419-.418.677-.997.677-1.633s-.258-1.194-.677-1.612a2.305 2.305 0 0 0-1.633-.677Z"/>
  <path fill="#0A0E29" fill-rule="evenodd" d="M214.361 20.227h-2.475V6.43h2.475v13.798Z" clip-rule="evenodd"/>
  <path fill="#0A0E29" d="M219.663 10.811a4.67 4.67 0 0 1 3.334 1.385c.837.858 1.385 2.037 1.385 3.334a4.701 4.701 0 0 1-1.385 3.312 4.7 4.7 0 0 1-3.334 1.385h-7.757v-9.416h7.757Zm0 2.409h-5.348v4.594h5.348a2.33 2.33 0 0 0 1.639-.672c.398-.418.672-.987.672-1.612 0-.626-.274-1.215-.672-1.638a2.323 2.323 0 0 0-1.639-.672Z"/>
  <path fill="#0A0E29" fill-rule="evenodd" d="M228.16 20.227h-2.476V6.43h2.476v13.798Zm-56.641-6.899c0-2.703 2.253-4.816 4.93-4.698a4.704 4.704 0 0 1 4.444 4.698c0 2.703-2.253 4.796-4.914 4.677a4.685 4.685 0 0 1-4.46-4.677Zm11.545-2.114c-2.057-6.713-11.643-6.713-13.7 0a7.036 7.036 0 0 0 0 4.207c2.057 6.734 11.643 6.734 13.7 0a7.296 7.296 0 0 0 0-4.207Z" clip-rule="evenodd"/>
</svg>
