<svg xmlns="http://www.w3.org/2000/svg" width="416" height="432" fill="none" viewBox="0 0 416 432">
  <g filter="url(#a)">
    <rect width="416" height="431.5" y=".081" fill="#D9D9D9" fill-opacity=".1" rx="60"/>
    <rect width="415" height="430.5" x=".5" y=".581" stroke="#000" rx="59.5"/>
    <path stroke="#1E2796" stroke-linecap="round" stroke-linejoin="round" stroke-width="13" d="M289.167 267.748a14.834 14.834 0 0 1-14.834 14.833h-133.5a14.83 14.83 0 0 1-10.488-4.345A14.83 14.83 0 0 1 126 267.748v-81.584a14.83 14.83 0 0 1 4.345-10.488 14.83 14.83 0 0 1 10.488-4.345H170.5l14.833-22.25h44.5l14.834 22.25h29.666a14.834 14.834 0 0 1 14.834 14.833v81.584Z"/>
    <path stroke="#1E2796" stroke-linecap="round" stroke-linejoin="round" stroke-width="13" d="M207.583 252.914c16.385 0 29.667-13.282 29.667-29.666 0-16.385-13.282-29.667-29.667-29.667-16.384 0-29.666 13.282-29.666 29.667 0 16.384 13.282 29.666 29.666 29.666Z"/>
  </g>
  <defs>
    <filter id="a" width="436" height="451.5" x="-10" y="-9.919" color-interpolation-filters="sRGB" filterUnits="userSpaceOnUse">
      <feFlood flood-opacity="0" result="BackgroundImageFix"/>
      <feGaussianBlur in="BackgroundImageFix" stdDeviation="5"/>
      <feComposite in2="SourceAlpha" operator="in" result="effect1_backgroundBlur_112_797"/>
      <feBlend in="SourceGraphic" in2="effect1_backgroundBlur_112_797" result="shape"/>
    </filter>
  </defs>
</svg>
