<svg xmlns="http://www.w3.org/2000/svg" width="229" height="62" fill="none" viewBox="0 0 229 62">
  <path fill="#0D89C9" fill-rule="evenodd" d="M62.802 30.643c-17.119 0-31-13.722-31-30.643h15.502c0 8.463 6.941 15.324 15.498 15.324v15.32Z" clip-rule="evenodd"/>
  <path fill="#0D89C9" d="M31.802.062V0H16.299C16.304 8.463 9.364 15.324.802 15.324v15.324h.052C17.93 30.623 31.77 16.948 31.807.067l-.005-.005Z"/>
  <path fill="#0D89C9" fill-rule="evenodd" d="M31.802 61.287h15.502c0-8.463 6.941-15.325 15.498-15.325V30.643h-.114c-17.072.062-30.886 13.758-30.886 30.644ZM.916 30.643H.802v15.32c8.562 0 15.502 6.86 15.502 15.324h15.498v-.2C31.692 44.293 17.915 30.704.916 30.643Z" clip-rule="evenodd"/>
  <path fill="#231F20" d="m78.388 46.06 1.381 2.783 1.382-2.783h.655v3.41h-.572v-2.367L80.06 49.47h-.597l-1.174-2.367v2.367h-.572v-3.41h.67Zm7.013.519h-1.808v.924h1.772v.519h-1.772v.93h1.808v.518h-2.38v-3.41h2.38v.519Zm.785 2.891 1.63-1.705-1.63-1.705h.727l1.377 1.433V46.06h.571v1.433l1.377-1.433h.727l-1.631 1.705 1.631 1.705h-.748l-1.356-1.412v1.412h-.571v-1.412l-1.356 1.412h-.748Zm8.384 0H94v-2.891h-1.793v2.891h-.572v-3.41h2.936v3.41Zm3.7-3.122a.985.985 0 0 1 .296.734.997.997 0 0 1-.296.74c-.198.195-.494.287-.878.287H96.3v1.356h-.572v-3.41h1.663c.384 0 .675.098.878.293Zm-.437 1.114c.11-.087.161-.216.161-.38a.463.463 0 0 0-.16-.375c-.11-.087-.266-.128-.458-.128h-1.07v1.017h1.07c.197 0 .348-.041.457-.129v-.005Zm4.156-.883h-1.807v.924h1.771v.519h-1.771v.93h1.807v.518H99.61v-3.41h2.379v.519Zm4.484 3.646h-.566v-.755h-2.53v.755h-.567v-1.274h.333c.249-.256.374-.708.374-1.355V46.06H106v2.891h.473v1.274Zm-2.385-3.646v1.011c0 .612-.088 1.063-.259 1.361h1.6V46.58h-1.341Zm3.907-.519 1.382 2.783 1.382-2.783h.655v3.41h-.572v-2.367l-1.174 2.367h-.597l-1.175-2.367v2.367h-.571v-3.41h.67Zm7.014.519h-1.808v.924h1.771v.519h-1.771v.93h1.808v.518h-2.38v-3.41h2.38v.519Zm.862-.519h2.889v.519h-1.159v2.891h-.571v-2.891h-1.159v-.519Zm6.634 3.41h-.571v-1.448h-1.85v1.448h-.571v-3.41h.571v1.443h1.85V46.06h.571v3.41Zm1.621-.77-.343.77h-.587l1.507-3.41h.587l1.507 3.41h-.608l-.343-.77h-1.72Zm1.491-.519-.628-1.422-.634 1.422h1.262Zm1.564-1.094a.96.96 0 0 1 .302-.734c.197-.195.493-.293.878-.293h1.662v3.41h-.571v-1.356h-.64l-1.044 1.356h-.712l1.06-1.371c-.306-.036-.54-.15-.696-.34a1.025 1.025 0 0 1-.234-.677l-.005.005Zm.738-.38a.455.455 0 0 0-.161.375c0 .16.052.293.161.38.109.087.265.128.462.128h1.071v-1.016h-1.071c-.197 0-.353.04-.462.128v.005Zm5.361-.2c.338-.344.764-.514 1.278-.514.515 0 .936.17 1.278.514.338.344.504.76.504 1.258s-.171.914-.504 1.258c-.337.344-.763.514-1.278.514-.514 0-.94-.17-1.278-.514a1.728 1.728 0 0 1-.509-1.258c0-.498.172-.914.509-1.258Zm.411 2.152c.228.241.519.36.867.36.349 0 .634-.119.868-.36.234-.242.348-.54.348-.894s-.114-.652-.348-.894a1.144 1.144 0 0 0-.868-.359 1.15 1.15 0 0 0-.867.36c-.229.24-.348.539-.348.893s.114.652.348.894Zm3.803-2.599h2.488v3.41h-.571v-2.891h-1.346v1.078c0 .165 0 .308-.01.432a4.534 4.534 0 0 1-.042.416 1.482 1.482 0 0 1-.104.385 1.474 1.474 0 0 1-.181.298.755.755 0 0 1-.286.215 1.11 1.11 0 0 1-.411.072h-.27v-.519h.172a.485.485 0 0 0 .233-.05.357.357 0 0 0 .156-.15c.042-.067.073-.138.099-.205a1.05 1.05 0 0 0 .052-.267c.01-.108.016-.2.021-.272V46.06Zm3.574 0h.572v2.578l1.865-2.578h.597v3.41h-.571v-2.578l-1.86 2.578h-.603v-3.41Zm4.759 0 1.382 2.783 1.382-2.783h.654v3.41h-.571v-2.367L147.5 49.47h-.598l-1.174-2.367v2.367h-.571v-3.41h.67Zm7.569 3.41h-.571v-2.891h-1.792v2.891h-.572v-3.41h2.935v3.41Zm1.159-3.41h.571v2.578l1.865-2.578h.598v3.41h-.572v-2.578l-1.859 2.578h-.603v-3.41Zm4.598 2.64-.343.77h-.587l1.506-3.41h.587l1.507 3.41h-.608l-.343-.77h-1.719Zm1.491-.519-.629-1.422-.634 1.422h1.263Zm5.039 2.044h-.566v-.755h-2.53v.755h-.567v-1.274h.333c.249-.256.374-.708.374-1.355V46.06h2.483v2.891h.473v1.274Zm-2.385-3.646v1.011c0 .612-.088 1.063-.259 1.361h1.6V46.58h-1.341Zm3.746 2.121-.343.77h-.587l1.507-3.41h.587l1.507 3.41h-.608l-.343-.77h-1.72Zm1.491-.519-.628-1.422-.634 1.422h1.262Zm-89.55 5.937.971-1.895h.582l-1.325 2.614c-.109.22-.202.38-.27.477a.775.775 0 0 1-.265.236.884.884 0 0 1-.41.083h-.41v-.52h.343c.114 0 .207-.02.275-.066a.524.524 0 0 0 .176-.22l.052-.114-1.293-2.49h.592l.987 1.895h-.005Zm2.805-1.895v.986c0 .236.063.405.198.503.135.097.343.149.644.149s.592-.03.888-.087v-1.551h.577v3.41h-.577v-1.34a4.611 4.611 0 0 1-.867.087c-.499 0-.863-.093-1.096-.283-.229-.19-.349-.483-.349-.883v-.991h.582Zm3.845 2.639-.343.77h-.587l1.507-3.41h.587l1.506 3.41h-.608l-.343-.77h-1.72Zm1.49-.518-.628-1.423-.634 1.423h1.263Zm4.225.77h1.366v-2.891h.571v2.89h.468v1.275h-.566v-.755H88.84v-3.41h.572v2.89h1.366v-2.89h.572v2.89Zm3.382-2.891h.571V54.8l1.865-2.578h.598v3.41h-.572v-2.578l-1.86 2.578h-.602v-3.41Zm6.208 3.41-.914-1.259-.915 1.259h-.639l1.232-1.7-1.232-1.71h.66l.904 1.253.909-1.253h.65l-1.237 1.7 1.237 1.71h-.655Zm3.159-2.958a1.15 1.15 0 0 0-.863.354c-.228.236-.343.534-.343.899 0 .364.115.657.343.898.229.237.515.36.863.36.379 0 .68-.15.904-.442h.628c-.14.298-.343.534-.608.704-.264.17-.571.257-.924.257-.504 0-.93-.17-1.268-.509a1.72 1.72 0 0 1-.509-1.263c0-.504.171-.93.509-1.264a1.743 1.743 0 0 1 1.268-.508c.348 0 .654.087.919.257.265.174.468.406.608.709h-.628a1.072 1.072 0 0 0-.904-.447l.005-.005Zm2.384.575a.98.98 0 0 1 .296-.735c.198-.195.494-.292.878-.292h1.663v3.41h-.572v-1.356h-.639l-1.044 1.356h-.712l1.06-1.372c-.306-.036-.54-.149-.696-.339a1.016 1.016 0 0 1-.234-.677v.005Zm.738-.38a.455.455 0 0 0-.161.375c0 .159.057.292.161.38.109.087.265.128.457.128h1.07v-1.017h-1.07c-.197 0-.348.041-.457.129v.005Zm6.837-.36a.99.99 0 0 1 .301.735.98.98 0 0 1-.301.74c-.203.194-.494.287-.878.287h-1.091v1.355h-.571v-3.41h1.662c.384 0 .675.098.878.293Zm-.436 1.115c.109-.088.161-.216.161-.38 0-.165-.052-.288-.161-.375-.109-.088-.26-.129-.458-.129h-1.07v1.017h1.07c.198 0 .349-.04.458-.128v-.005Zm3.953-1.49v.396h.302c.431 0 .789.123 1.075.37.286.246.426.575.426.99 0 .417-.14.75-.426.997s-.644.37-1.075.37h-.302v.462h-.571v-.462h-.302c-.431 0-.789-.123-1.075-.37-.286-.246-.426-.58-.426-.996 0-.416.14-.745.426-.992.286-.246.644-.37 1.075-.37h.302v-.395h.571Zm-.873 2.604h.302v-1.69h-.302c-.259 0-.478.072-.659.216-.182.144-.271.35-.271.627s.089.488.271.631c.181.144.4.216.659.216Zm.873 0h.302c.259 0 .477-.072.659-.216.182-.143.27-.354.27-.631 0-.278-.088-.488-.27-.627a1.057 1.057 0 0 0-.659-.215h-.302v1.689Zm3.694-2.516h.571V54.8l1.866-2.578h.597v3.41h-.571v-2.578l-1.86 2.578h-.603v-3.41Zm6.884.452a1.15 1.15 0 0 0-.863.354c-.228.236-.343.534-.343.899 0 .364.115.657.343.898.229.237.515.36.863.36.379 0 .68-.15.904-.442h.628c-.14.298-.343.534-.608.704a1.67 1.67 0 0 1-.924.257c-.504 0-.93-.17-1.268-.509a1.72 1.72 0 0 1-.509-1.263c0-.504.171-.93.509-1.264a1.743 1.743 0 0 1 1.268-.508c.348 0 .659.087.924.257.265.174.468.406.608.709h-.628a1.072 1.072 0 0 0-.904-.447v-.005Zm2.239-.452h2.888v.518h-1.158v2.892h-.572V52.74h-1.158v-.518Zm6.182.287a.983.983 0 0 1 .296.735.994.994 0 0 1-.296.74c-.197.194-.493.287-.878.287h-1.091v1.355h-.571v-3.41h1.662c.385 0 .676.098.878.293Zm-.436 1.115c.109-.088.161-.216.161-.38 0-.165-.052-.288-.161-.375-.109-.088-.265-.129-.463-.129h-1.07v1.017h1.07c.198 0 .348-.04.463-.128v-.005Zm2.286 1.237-.343.77h-.587l1.506-3.41h.587l1.507 3.41h-.608l-.343-.77h-1.719Zm1.491-.518-.629-1.423-.634 1.423h1.263Zm4.707 1.289h-.572v-1.449h-1.849v1.449h-.572v-3.41h.572v1.443h1.849v-1.443h.572v3.41Zm4.857-1.808a1 1 0 0 1 .307.755c0 .303-.104.555-.307.755-.202.2-.504.298-.899.298h-1.626v-3.41h2.598v.518h-2.026v.786h1.054c.395 0 .697.098.899.298Zm-.265.755a.482.482 0 0 0-.171-.396c-.115-.092-.281-.138-.483-.138h-1.034v1.068h1.034c.213 0 .374-.046.488-.139a.476.476 0 0 0 .171-.395h-.005Zm3.938-2.07a.983.983 0 0 1 .296.735.994.994 0 0 1-.296.74c-.197.194-.493.287-.878.287h-1.091v1.355h-.571v-3.41h1.662c.385 0 .676.098.878.293Zm-.436 1.115c.109-.088.161-.216.161-.38 0-.165-.052-.288-.161-.375-.109-.088-.265-.129-.463-.129h-1.07v1.017h1.07c.198 0 .349-.04.463-.128v-.005Zm1.777-1.402h.571V54.8l1.865-2.578h.598v3.41h-.572v-2.578l-1.86 2.578h-.602v-3.41Zm5.132 1.705 1.767 1.705h-.764l-1.475-1.413v1.413h-.572v-3.41h.572v1.427l1.496-1.427h.743l-1.767 1.705Zm3.918-1.253a1.15 1.15 0 0 0-.863.354c-.228.236-.343.534-.343.899 0 .364.115.657.343.898.229.237.515.36.863.36.379 0 .68-.15.904-.442h.628c-.14.298-.343.534-.608.704a1.67 1.67 0 0 1-.924.257c-.504 0-.93-.17-1.268-.509a1.72 1.72 0 0 1-.509-1.263c0-.504.171-.93.509-1.264a1.743 1.743 0 0 1 1.268-.508c.348 0 .659.087.924.257.265.174.468.406.608.709h-.628a1.072 1.072 0 0 0-.904-.447v-.005Z"/>
  <path fill="#0A0E29" d="M83.406 25.297c-1.88 0-3.34.755-4.374 2.26h-1.637a6.806 6.806 0 0 1 2.426-2.63c1.029-.646 2.224-.97 3.59-.97 2.068 0 3.808.709 5.216 2.12 1.408 1.413 2.115 3.16 2.115 5.234 0 2.075-.707 3.816-2.115 5.233-1.408 1.412-3.148 2.121-5.216 2.121-1.366 0-2.561-.323-3.59-.97-1.028-.648-1.834-1.526-2.426-2.63h1.637c1.034 1.505 2.493 2.26 4.374 2.26 1.553 0 2.868-.498 3.954-1.49 1.085-.996 1.698-2.27 1.844-3.836H80.99v-1.34h8.214c-.145-1.577-.753-2.86-1.824-3.857-1.07-.996-2.395-1.49-3.974-1.49v-.015Zm21.898 13.086h-1.486v-6.394h-9.097v6.393h-1.486V24.235h1.486v6.414h9.097v-6.414h1.486v14.148Zm12.936-12.808h-8.037v5.068h7.887v1.34h-7.887v5.049h8.037v1.34h-9.528V24.224h9.528v1.35Zm13.04-.19c.79.765 1.185 1.74 1.185 2.917 0 1.176-.395 2.146-1.185 2.906-.789.76-1.964 1.14-3.512 1.14h-5.086v6.03h-1.486v-14.15h6.572c1.554 0 2.723.385 3.512 1.15v.006Zm-1.153 4.95c.566-.447.852-1.124.852-2.033 0-.91-.286-1.592-.852-2.044-.566-.452-1.361-.683-2.38-.683h-5.065v5.433h5.065c1.019 0 1.814-.226 2.38-.673Zm4.728-6.101h9.85v1.34h-8.365v12.803h-1.485V24.23v.005Zm21.425 1.341h-8.037v5.068h7.886v1.34h-7.886v5.049h8.037v1.34h-9.528V24.224h9.528v1.35Zm1.595-1.341h11.705v1.34h-5.107v12.803h-1.486V25.575h-5.107v-1.34h-.005Zm13.751 0h1.486V36.53l8.926-12.295h1.834v14.148h-1.486V26.11l-8.9 12.273h-1.854V24.235h-.006Zm18.49 7.072 7.996 7.071h-2.026l-7.331-6.368v6.368h-1.486V24.23h1.486v6.306l7.242-6.306h2.115l-7.996 7.072v.005Z"/>
  <path fill="#0A0E29" d="m210.617 38.383-1.507-3.39h-8.234l-1.507 3.39h-1.574l6.291-14.149h1.834l6.271 14.148h-1.574ZM204.99 25.77l-3.512 7.883h7.024l-3.512-7.883Z"/>
  <path fill="#0A0E29" fill-rule="evenodd" d="m199.935 19.915 4.972-13.711h2.639l-3.039 8.376h6.12l-3.034-8.376h2.639l4.972 13.711h-2.639l-1.044-2.88h-7.902l-1.044 2.88h-2.64Zm-1.148-13.711h-2.483v5.628h-7.855V6.204h-2.484v13.711h2.484v-5.628h7.855v5.628h2.483V6.204Z" clip-rule="evenodd"/>
  <path fill="#0A0E29" d="M77.41 19.915V6.204h6.22c1.6 0 2.805.405 3.626 1.217.618.616.93 1.386.93 2.31 0 1.362-.66 2.379-1.98 3.056 1.834.617 2.754 1.736 2.754 3.37 0 1.2-.463 2.13-1.387 2.783-.925.652-2.172.98-3.74.98h-6.417l-.005-.005Zm2.401-7.934h3.33c.805 0 1.444-.16 1.912-.477.468-.319.701-.791.701-1.423 0-.55-.213-.976-.633-1.284-.421-.308-1.024-.462-1.803-.462H79.81v3.646Zm0 5.798h4.042c.847 0 1.501-.164 1.969-.488.467-.329.701-.801.701-1.428 0-1.227-.95-1.843-2.852-1.843h-3.86v3.759Z"/>
  <path fill="#0A0E29" fill-rule="evenodd" d="M92.597 13.06c0-2.686 2.265-4.787 4.956-4.669 2.499.139 4.468 2.178 4.468 4.668 0 2.686-2.266 4.766-4.941 4.648-2.499-.118-4.483-2.157-4.483-4.648Zm11.606-2.1c-2.068-6.672-11.705-6.672-13.773 0a6.916 6.916 0 0 0 0 4.18c2.068 6.69 11.705 6.69 13.773 0a7.174 7.174 0 0 0 0-4.18Zm20.905 2.1c0-2.686 2.265-4.787 4.957-4.669 2.498.139 4.467 2.178 4.467 4.668 0 2.686-2.265 4.766-4.94 4.648-2.499-.118-4.484-2.157-4.484-4.648Zm11.606-2.1c-2.067-6.672-11.704-6.672-13.772 0a6.92 6.92 0 0 0 0 4.18c2.068 6.69 11.705 6.69 13.772 0a7.157 7.157 0 0 0 0-4.18Zm-15.741 8.955h-2.629l-4.79-13.711h2.629l2.021 5.823 2.769 7.888Zm-14.874 0 4.79-13.711h2.644l-4.79 13.711h-2.644Z" clip-rule="evenodd"/>
  <path fill="#0A0E29" fill-rule="evenodd" d="m104.514 17.456.842 2.46h15.918l1.283-2.46h-18.043Z" clip-rule="evenodd"/>
  <path fill="#0A0E29" d="m216.352 19.915 3.782-5.15c-1.018-.273-1.823-.766-2.415-1.48-.593-.713-.894-1.617-.894-2.711 0-1.33.462-2.393 1.387-3.184.925-.79 2.187-1.186 3.782-1.186h6.162v13.711h-2.416v-4.74h-3.07l-3.445 4.74h-2.873Zm5.803-6.835h3.585V8.381h-3.548c-.909 0-1.626.206-2.141.616-.514.411-.774.992-.774 1.736 0 .745.26 1.29.785 1.715.519.427 1.221.637 2.088.637l.005-.005Zm-72.837-5.51a4.74 4.74 0 0 0-3.346-1.366h-7.798v13.711h2.489v-4.36h5.315a4.728 4.728 0 0 0 3.345-1.366 4.629 4.629 0 0 0 1.382-3.307 4.62 4.62 0 0 0-1.382-3.307l-.005-.005Zm-1.725 4.935a2.32 2.32 0 0 1-1.626.652h-5.315V8.581h5.315c.639 0 1.221.257 1.626.673a2.277 2.277 0 0 1 0 3.246v.005Z"/>
  <path fill="#0A0E29" fill-rule="evenodd" d="M125.108 13.06c0-2.686 2.265-4.787 4.957-4.669 2.498.139 4.467 2.178 4.467 4.668 0 2.686-2.265 4.766-4.94 4.648-2.499-.118-4.484-2.157-4.484-4.648Zm11.606-2.1c-2.067-6.672-11.704-6.672-13.772 0a6.92 6.92 0 0 0 0 4.18c2.068 6.69 11.705 6.69 13.772 0a7.157 7.157 0 0 0 0-4.18Zm17.623 2.1c0-2.686 2.265-4.787 4.956-4.669 2.499.139 4.468 2.178 4.468 4.668 0 2.686-2.265 4.766-4.941 4.648-2.499-.118-4.483-2.157-4.483-4.648Zm11.606-2.1c-2.068-6.672-11.705-6.672-13.773 0a6.92 6.92 0 0 0 0 4.18c2.068 6.69 11.705 6.69 13.773 0a7.174 7.174 0 0 0 0-4.18Zm16.77 8.955h-2.623l-4.796-13.711h2.629l2.026 5.823 2.764 7.888Zm-14.874 0 4.79-13.711h2.65l-4.795 13.711h-2.645Z" clip-rule="evenodd"/>
  <path fill="#0A0E29" fill-rule="evenodd" d="m166.255 17.456.841 2.46h15.918l1.284-2.46h-18.043Z" clip-rule="evenodd"/>
</svg>
