<?xml version="1.0" encoding="UTF-8"?>
<svg id="_Слой_1" data-name="Слой 1" xmlns="http://www.w3.org/2000/svg" viewBox="0 0 1004 154.84">
  <defs>
    <style>
      .cls-1, .cls-2 {
        fill-rule: evenodd;
      }

      .cls-1, .cls-3 {
        fill: #008fd6;
      }

      .cls-4, .cls-2 {
        fill: #151025;
      }
    </style>
  </defs>
  <path class="cls-2" d="m338.09,11.76c8.69,0,16.21,4.98,19.87,12.24h12.63c-4.27-13.9-17.2-24-32.5-24-18.77,0-33.99,15.22-33.99,33.99s15.22,33.99,33.99,33.99c15.29,0,28.23-10.1,32.5-24h-12.63c-3.66,7.26-11.18,12.24-19.87,12.24-12.28,0-22.23-9.95-22.23-22.23s9.95-22.23,22.23-22.23"/>
  <polygon class="cls-2" points="584.72 66.8 597.16 66.8 619.81 1.17 607.38 1.17 584.72 66.8"/>
  <polygon class="cls-2" points="406.59 1.17 419.38 38.22 393.7 38.22 406.49 1.17 394.05 1.17 371.4 66.8 383.84 66.8 389.64 49.98 423.44 49.98 429.24 66.8 441.68 66.8 419.03 1.17 406.59 1.17"/>
  <polygon class="cls-2" points="619.92 1.17 642.57 66.8 655 66.8 632.35 1.17 619.92 1.17"/>
  <polygon class="cls-2" points="547.79 1.17 560.58 38.22 534.9 38.22 547.69 1.17 535.25 1.17 512.6 66.8 525.03 66.8 530.84 49.98 564.63 49.98 570.44 66.8 582.88 66.8 560.22 1.17 547.79 1.17"/>
  <polygon class="cls-2" points="496.64 1.17 476.87 34.08 457.09 1.17 443.38 1.17 463.17 34.11 443.52 66.8 457.23 66.8 476.87 34.13 496.5 66.8 510.21 66.8 490.56 34.11 510.35 1.17 496.64 1.17"/>
  <polygon class="cls-2" points="674.25 66.25 674.25 1.17 662.5 1.17 662.5 66.8 686.71 66.8 713.21 1.57 713.21 66.8 724.97 66.8 724.97 1.17 700.69 1.17 674.25 66.25"/>
  <polygon class="cls-2" points="886.05 1.17 874.3 1.17 874.3 66.8 886.05 66.8 886.05 66.79 929.21 66.69 929.21 54.94 886.05 54.94 886.05 39.46 928.3 39.46 928.3 27.7 886.05 27.7 886.05 12.94 930.14 12.94 930.14 1.18 886.05 1.18 886.05 1.17"/>
  <polygon class="cls-2" points="1004 1.17 990.29 1.17 970.51 34.08 950.74 1.17 937.03 1.17 956.82 34.11 937.17 66.8 950.88 66.8 970.51 34.13 990.15 66.8 1003.86 66.8 984.21 34.11 1004 1.17"/>
  <polygon class="cls-2" points="841.6 1.17 829.84 1.17 829.84 1.18 805.6 1.18 805.6 12.94 829.84 12.94 829.84 66.8 841.6 66.8 841.6 12.94 865.83 12.94 865.83 1.18 841.6 1.18 841.6 1.17"/>
  <polygon class="cls-2" points="785.96 28.11 748.8 28.11 748.8 1.17 737.05 1.17 737.05 66.8 748.8 66.8 748.8 39.87 785.96 39.87 785.96 66.8 797.72 66.8 797.72 1.17 785.96 1.17 785.96 28.11"/>
  <rect class="cls-3" y="1.17" width="77.8" height="80.76"/>
  <path class="cls-1" d="m78.31,143.64v9.92h78.71v-9.92c0-35.86,29.07-64.93,64.93-64.93h8.57V0h-8.57C142.62,0,78.31,64.31,78.31,143.64"/>
  <polygon class="cls-4" points="403.45 88.3 420.33 131.74 386.41 131.74 403.35 88.3 395.98 88.3 370.53 153.56 377.9 153.56 384.07 137.74 422.66 137.74 428.81 153.56 436.18 153.56 410.82 88.3 403.45 88.3"/>
  <path class="cls-4" d="m607,88.3l-19.85,40.89-21.03-40.89h-7.27l24.77,48.55-1.37,2.85c-1.31,2.88-2.82,4.88-4.52,6-1.64,1.11-3.77,1.67-6.39,1.67h-3.93v6.19h5.6c2.95,0,5.31-.46,7.08-1.38,1.77-.92,3.34-2.36,4.72-4.32,1.38-2.03,3.05-5.14,5.02-9.34l24.37-50.22h-7.18Z"/>
  <path class="cls-4" d="m324.14,96.85c4.06-2.42,8.62-3.64,13.66-3.64,6.75,0,12.25,1.44,16.51,4.32,4.33,2.88,7.08,6.75,8.26,11.6h7.08c-.52-3.6-2.16-7.11-4.91-10.52-2.75-3.41-6.49-6.19-11.21-8.35-4.65-2.16-9.89-3.25-15.73-3.25-6.22,0-11.89,1.51-17,4.52-5.04,2.95-9.04,7.01-11.99,12.19-2.95,5.18-4.42,10.91-4.42,17.2s1.47,12.02,4.42,17.2c2.95,5.18,6.95,9.27,11.99,12.29,5.11,2.95,10.78,4.42,17,4.42,8.58,0,15.5-1.8,20.74-5.41,5.24-3.67,8.91-8.88,11.01-15.63h-6.88c-3.74,9.9-12.02,14.84-24.87,14.84-5.04,0-9.6-1.18-13.66-3.54-4.06-2.43-7.24-5.74-9.53-9.93-2.29-4.19-3.44-8.94-3.44-14.25s1.15-10.06,3.44-14.25c2.29-4.19,5.47-7.47,9.53-9.83"/>
  <polygon class="cls-4" points="440.55 88.3 463.26 120.93 440.55 153.56 440.85 153.56 448.02 153.56 448.32 153.56 471.12 120.93 448.32 88.3 440.55 88.3"/>
  <polygon class="cls-4" points="509.87 153.56 516.66 153.56 516.66 94.49 554.79 94.49 554.79 88.3 509.87 88.3 509.87 153.56"/>
  <polygon class="cls-4" points="493.82 88.3 471.12 120.93 493.82 153.56 494.22 153.56 501.29 153.56 501.69 153.56 478.88 120.93 501.69 88.3 493.82 88.3"/>
</svg>