<svg xmlns="http://www.w3.org/2000/svg" width="199" height="62" fill="none" viewBox="0 0 199 62">
  <path fill="#22BD50" fill-rule="evenodd" d="M31.136 30.363v-.01h15.237c0 8.566 6.821 15.504 15.236 15.504v15.51c-16.825 0-30.463-13.883-30.468-31.004h-.005ZM.005 61.366c17.166 0 31.09-13.84 31.13-30.931v-.082H15.569c0 8.566-6.97 15.504-15.568 15.504v15.51h.005Z" clip-rule="evenodd"/>
  <path fill="#22BD50" fill-rule="evenodd" d="M31.13 0C13.94 0 0 13.887 0 31.013h15.568c0-8.566 6.97-15.51 15.568-15.51V0h-.005Zm30.474 31.008C61.604 13.884 47.961 0 31.136 0v15.507c8.415 0 15.237 6.942 15.237 15.506h15.236l-.005-.005Z" clip-rule="evenodd"/>
  <path fill="#0A0E29" fill-rule="evenodd" d="m118.706 7.731-6.193 14.641h-2.857l6.193-14.64h2.857Z" clip-rule="evenodd"/>
  <path fill="#0A0E29" d="M121.508 7.731h-2.631v14.641h2.631V7.732Zm-11.889 0h-2.632v14.641h2.632V7.732Z"/>
  <path fill="#0A0E29" fill-rule="evenodd" d="M97.106 22.372h-2.802l-5.076-14.64h2.802l2.147 6.218 2.929 8.422Z" clip-rule="evenodd"/>
  <path fill="#0A0E29" d="M89.22 7.731h-2.78v14.641h2.78V7.732Z"/>
  <path fill="#0A0E29" fill-rule="evenodd" d="m94.575 22.372 5.076-14.64h2.785l-5.075 14.64h-2.786Z" clip-rule="evenodd"/>
  <path fill="#0A0E29" d="M105.217 7.731h-2.781l.001 14.641h2.78V7.732Zm29.868 1.459a5.002 5.002 0 0 0-3.545-1.459h-8.263v14.641h2.637v-4.655h5.632a4.994 4.994 0 0 0 3.545-1.459 4.963 4.963 0 0 0 1.464-3.531 4.95 4.95 0 0 0-1.464-3.531l-.006-.006Zm-1.827 5.27a2.448 2.448 0 0 1-1.723.696h-5.632V10.27h5.632a2.39 2.39 0 0 1 1.723.719 2.44 2.44 0 0 1 0 3.465v.006Zm21.033 7.912V7.732h6.59c1.695 0 2.972.433 3.842 1.299.655.658.985 1.48.985 2.468 0 1.453-.699 2.538-2.097 3.262 1.943.658 2.918 1.854 2.918 3.597 0 1.283-.49 2.276-1.47 2.972-.98.697-2.301 1.048-3.964 1.048h-6.799l-.005-.006Zm2.538-8.472h3.529c.853 0 1.53-.17 2.025-.51.496-.34.744-.844.744-1.519 0-.586-.226-1.041-.672-1.37-.446-.33-1.085-.494-1.91-.494h-3.716V13.9Zm0 6.191h4.283c.897 0 1.591-.175 2.086-.52.496-.352.743-.856.743-1.525 0-1.31-1.007-1.969-3.022-1.969h-4.09v4.014Z"/>
  <path fill="#0A0E29" fill-rule="evenodd" d="m195.943 7.731-6.199 14.641h-2.857l6.199-14.64h2.857Z" clip-rule="evenodd"/>
  <path fill="#0A0E29" d="M198.74 7.731h-2.632v14.641h2.632V7.732Zm-11.883.001h-2.632v14.64h2.632V7.732Zm3.631-3.791h-2.62v3.526h2.62V3.941Z"/>
  <path fill="#0A0E29" fill-rule="evenodd" d="M140.447 15.052c0-2.868 2.4-5.11 5.251-4.985 2.648.148 4.735 2.325 4.735 4.985 0 2.867-2.4 5.088-5.236 4.962-2.648-.126-4.75-2.303-4.75-4.962Zm12.298-2.243c-2.191-7.123-12.403-7.123-14.594 0a7.437 7.437 0 0 0 0 4.463c2.191 7.145 12.403 7.145 14.594 0a7.71 7.71 0 0 0 0-4.463Zm17.63 2.243c0-2.868 2.4-5.11 5.252-4.985 2.648.148 4.734 2.325 4.734 4.985 0 2.867-2.4 5.088-5.235 4.962-2.648-.126-4.751-2.303-4.751-4.962Zm12.298-2.243c-2.191-7.123-12.403-7.123-14.594 0a7.437 7.437 0 0 0 0 4.463c2.191 7.145 12.403 7.145 14.594 0a7.695 7.695 0 0 0 0-4.463Z" clip-rule="evenodd"/>
  <path fill="#231F20" d="m87.582 50.972 1.464 2.972 1.464-2.972h.694v3.641H90.6v-2.527l-1.245 2.527h-.633l-1.244-2.527v2.527h-.605v-3.64h.71Zm7.431.554h-1.916v.987h1.878v.554h-1.877v.993h1.915v.553h-2.521v-3.64h2.521v.553Zm.829 3.087 1.728-1.82-1.728-1.82h.77l1.46 1.53v-1.53h.605v1.53l1.459-1.53h.77l-1.728 1.82 1.728 1.82h-.792l-1.437-1.508v1.508h-.606v-1.508l-1.436 1.508h-.793Zm8.888 0h-.605v-3.087h-1.9v3.087h-.605v-3.64h3.11v3.64Zm3.918-3.328c.209.209.319.472.319.79 0 .318-.105.581-.319.784-.21.208-.523.313-.931.313h-1.156v1.447h-.605v-3.64h1.761c.408 0 .716.103.931.306Zm-.463 1.19c.116-.093.171-.23.171-.406 0-.175-.055-.312-.171-.405-.115-.094-.275-.138-.484-.138h-1.134v1.086h1.134c.209 0 .369-.044.484-.137Zm4.407-.949h-1.916v.987h1.877v.554h-1.877v.993h1.916v.553h-2.521v-3.64h2.521v.553Zm4.75 3.894h-.6v-.807h-2.681v.806h-.6v-1.36h.352c.265-.274.397-.756.397-1.447v-1.64h2.631v3.088h.501v1.36Zm-2.527-3.894v1.08c0 .653-.093 1.136-.275 1.454h1.696v-2.534h-1.421Zm4.139-.554 1.464 2.972 1.465-2.972h.693v3.641h-.605v-2.527l-1.245 2.527h-.633l-1.244-2.527v2.527h-.605v-3.64h.71Zm7.433.554h-1.915v.987h1.877v.554h-1.877v.993h1.915v.553h-2.521v-3.64h2.521v.553Zm.912-.554h3.061v.554h-1.228v3.087h-.606v-3.087h-1.227v-.554Zm7.029 3.641h-.606v-1.546h-1.96v1.546h-.605v-3.64h.605v1.54h1.96v-1.54h.606v3.64Zm1.718-.823-.363.823h-.622l1.596-3.64h.622l1.597 3.64h-.644l-.364-.822h-1.822Zm1.58-.553-.666-1.519-.672 1.52h1.338Zm1.658-1.167c0-.319.105-.582.314-.79.209-.209.523-.308.93-.308h1.762v3.641h-.606v-1.447h-.677l-1.106 1.447h-.755l1.123-1.464c-.324-.038-.572-.159-.737-.362a1.087 1.087 0 0 1-.248-.718Zm.776-.401c-.115.093-.17.23-.17.406 0 .175.06.307.17.405.116.094.281.137.49.137h1.134v-1.085h-1.134c-.209 0-.374.044-.49.137Zm5.683-.218c.358-.367.81-.548 1.355-.548.545 0 .991.18 1.354.548.358.367.534.812.534 1.344s-.176.976-.534 1.343c-.358.367-.809.548-1.354.548s-.991-.18-1.355-.548a1.848 1.848 0 0 1-.534-1.343c0-.532.177-.977.534-1.344Zm.441 2.298c.242.257.55.383.914.383.363 0 .671-.126.919-.383.242-.258.363-.576.363-.954a1.34 1.34 0 0 0-.363-.955 1.206 1.206 0 0 0-.919-.383c-.369 0-.672.126-.914.383a1.346 1.346 0 0 0-.369.955c0 .378.121.696.369.954Zm4.027-2.777h2.637v3.641h-.605v-3.087h-1.426v1.152c0 .175 0 .329-.011.46-.011.132-.022.28-.05.439a1.424 1.424 0 0 1-.302.73.795.795 0 0 1-.303.23 1.045 1.045 0 0 1-.435.076h-.286v-.553h.181a.589.589 0 0 0 .248-.05.351.351 0 0 0 .165-.159c.044-.071.077-.148.105-.22.027-.07.044-.17.055-.284.011-.115.016-.214.022-.29v-2.079l.005-.006Zm3.788 0h.606v2.753l1.976-2.753h.633v3.641h-.605v-2.752l-1.971 2.752h-.639v-3.64Zm5.042 0 1.464 2.972 1.464-2.972h.694v3.641h-.606v-2.527l-1.244 2.527h-.633l-1.244-2.527v2.527h-.606v-3.64h.711Zm8.021 3.641h-.606v-3.087h-1.899v3.087h-.605v-3.64h3.11v3.64Zm1.23-3.641h.606v2.753l1.976-2.753h.633v3.641h-.605v-2.752l-1.971 2.752h-.639v-3.64Zm4.872 2.818-.363.823h-.622l1.597-3.64h.622l1.596 3.64h-.644l-.363-.822h-1.823Zm1.58-.553-.666-1.519-.671 1.52h1.337Zm5.337 2.183h-.6v-.807H176.8v.806h-.6v-1.36h.353c.264-.274.396-.756.396-1.447v-1.64h2.631v3.088h.501v1.36Zm-2.527-3.894v1.08c0 .653-.093 1.136-.275 1.454h1.696v-2.534h-1.421Zm3.973 2.264-.363.823h-.622l1.596-3.64h.622l1.597 3.64h-.644l-.364-.822h-1.822Zm1.58-.553-.666-1.519-.672 1.52h1.338Zm-94.895 6.339 1.03-2.023h.616l-1.404 2.791a4.248 4.248 0 0 1-.286.51.788.788 0 0 1-.286.252.93.93 0 0 1-.435.088h-.435v-.554h.363a.51.51 0 0 0 .292-.071.558.558 0 0 0 .187-.236l.055-.12-1.37-2.66h.627l1.046 2.023Zm2.365-2.023h.611v1.053c0 .252.066.433.21.537.137.104.368.16.688.16.319 0 .627-.034.941-.094v-1.656h.611v3.64h-.611v-1.43c-.314.06-.617.093-.92.093-.528 0-.913-.099-1.16-.302-.243-.203-.364-.515-.364-.943v-1.058h-.006Zm4.683 2.818-.363.823h-.622l1.596-3.641h.622l1.597 3.64h-.644l-.364-.822H95.26Zm1.58-.553-.666-1.52-.672 1.52h1.338Zm4.474.822h1.448v-3.087h.605v3.087h.496V62h-.6v-.806h-4.608v-3.641h.605v3.087h1.448v-3.087h.606v3.087Zm3.586-3.087h.605v2.753l1.976-2.753h.633v3.64h-.605v-2.752l-1.971 2.753h-.638v-3.641Zm6.577 3.641-.969-1.344-.969 1.344h-.677l1.305-1.815-1.305-1.826h.699l.958 1.338.964-1.338h.688l-1.31 1.815 1.31 1.826h-.694Zm3.347-3.159c-.368 0-.671.126-.913.384-.243.252-.364.57-.364.96 0 .389.121.701.364.954.242.252.545.383.913.383.402 0 .722-.159.958-.471h.666c-.148.318-.363.57-.644.751a1.77 1.77 0 0 1-.98.274c-.534 0-.985-.18-1.343-.537-.358-.362-.539-.812-.539-1.35 0-.537.181-.992.539-1.354.358-.361.809-.537 1.343-.537.369 0 .7.093.98.274.281.181.496.434.644.757h-.666a1.132 1.132 0 0 0-.958-.477v-.011Zm2.528.615c0-.318.104-.582.319-.79.209-.208.517-.307.925-.307h1.761v3.64h-.605v-1.447h-.677l-1.107 1.448h-.754l1.123-1.464c-.325-.038-.573-.16-.738-.362a1.086 1.086 0 0 1-.247-.718Zm.781-.4a.497.497 0 0 0-.176.405c0 .176.061.307.176.406.116.093.276.137.485.137h1.134v-1.086h-1.134c-.209 0-.369.044-.485.137Zm7.241-.384c.21.208.32.471.32.79 0 .318-.105.58-.32.784-.209.208-.517.312-.924.312h-1.156V61.2h-.606v-3.641h1.762c.407 0 .715.104.924.307Zm-.456 1.19a.497.497 0 0 0 .176-.406c0-.175-.055-.313-.176-.406-.116-.093-.276-.137-.485-.137h-1.134v1.086h1.134c.209 0 .374-.044.485-.137Zm4.187-1.596v.422h.319c.457 0 .837.132 1.14.395.303.263.451.614.451 1.058 0 .444-.148.8-.451 1.064-.303.263-.683.395-1.14.395h-.319v.493h-.606v-.493h-.319c-.457 0-.837-.132-1.139-.395-.303-.263-.452-.62-.452-1.064 0-.444.149-.795.452-1.058.302-.263.682-.395 1.139-.395h.319v-.422h.606Zm-.925 2.78h.319v-1.804h-.319c-.275 0-.506.077-.699.225-.193.153-.286.378-.286.674 0 .296.093.521.286.675.193.153.424.23.699.23Zm.925 0h.319c.276 0 .507-.077.699-.23.193-.154.287-.379.287-.675 0-.296-.094-.52-.287-.674a1.077 1.077 0 0 0-.699-.225h-.319v1.804Zm3.913-2.687h.606v2.753l1.976-2.753h.633v3.64h-.605v-2.752l-1.971 2.753h-.639v-3.641Zm7.294.482c-.369 0-.672.126-.914.384-.242.252-.363.57-.363.96 0 .389.121.701.363.954.242.252.545.383.914.383.402 0 .721-.159.958-.471h.666c-.149.318-.363.57-.644.751-.281.18-.606.274-.98.274-.534 0-.985-.18-1.343-.537-.358-.362-.54-.812-.54-1.35 0-.537.182-.992.54-1.354.358-.361.809-.537 1.343-.537.369 0 .699.093.98.274.281.181.495.434.65.757h-.667a1.131 1.131 0 0 0-.957-.477l-.006-.011Zm2.376-.482h3.061v.554h-1.228v3.087h-.605v-3.087h-1.228v-.554Zm6.545.313c.209.208.313.471.313.79 0 .318-.104.58-.313.784-.209.208-.523.312-.931.312h-1.156V61.2h-.605v-3.641h1.761c.408 0 .716.104.931.307Zm-.463 1.19c.116-.093.171-.23.171-.406 0-.175-.055-.313-.171-.406-.115-.093-.28-.137-.484-.137h-1.134v1.086h1.134c.209 0 .369-.044.484-.137Zm2.427 1.315-.363.823h-.622l1.596-3.641h.622l1.597 3.64h-.644l-.364-.822h-1.822Zm1.58-.553-.666-1.52-.672 1.52h1.338Zm4.989 1.376h-.606v-1.546h-1.96v1.546h-.605v-3.641h.605v1.54h1.96v-1.54h.606v3.64Zm5.142-1.93c.22.214.325.482.325.806 0 .323-.11.592-.325.806-.215.214-.534.318-.953.318h-1.723v-3.641h2.753v.554h-2.147v.839h1.117c.419 0 .738.104.953.318Zm-.275.806a.517.517 0 0 0-.182-.422c-.121-.1-.297-.148-.518-.148h-1.095v1.14h1.095c.226 0 .397-.05.518-.142a.523.523 0 0 0 .182-.428Zm4.167-2.204c.209.208.314.471.314.79 0 .318-.105.58-.314.784-.209.208-.523.312-.93.312h-1.156V61.2h-.606v-3.641h1.762c.407 0 .715.104.93.307Zm-.457 1.19c.116-.093.171-.23.171-.406a.508.508 0 0 0-.171-.406c-.115-.093-.281-.137-.49-.137h-1.134v1.086h1.134c.209 0 .375-.044.49-.137Zm1.879-1.503h.606v2.753l1.976-2.753h.633v3.64h-.605v-2.752l-1.971 2.753h-.639v-3.641Zm5.443 1.82 1.872 1.82h-.809l-1.564-1.507v1.508h-.605v-3.641h.605v1.524l1.586-1.524h.787l-1.872 1.82Zm4.15-1.338c-.369 0-.672.126-.914.384-.242.252-.364.57-.364.96 0 .389.122.701.364.954.242.252.545.383.914.383.402 0 .721-.159.958-.471h.666c-.149.318-.364.57-.644.751-.281.18-.606.274-.98.274-.534 0-.986-.18-1.344-.537a1.847 1.847 0 0 1-.539-1.35c0-.537.182-.992.539-1.354.358-.361.81-.537 1.344-.537.368 0 .699.093.98.274.28.181.495.434.649.757h-.666a1.133 1.133 0 0 0-.958-.477l-.005-.011Z"/>
  <path fill="#0A0E29" d="M88.691 29.628c1.498-1.503 3.33-2.254 5.494-2.254 2.164 0 3.991.751 5.494 2.254 1.498 1.502 2.252 3.367 2.252 5.598 0 2.232-.749 4.096-2.252 5.599-1.497 1.502-3.33 2.253-5.494 2.253-2.163 0-3.991-.75-5.494-2.253-1.503-1.503-2.252-3.367-2.252-5.599 0-2.231.75-4.096 2.252-5.598Zm1.074 10.204c1.167 1.207 2.636 1.81 4.42 1.81 1.784 0 3.254-.603 4.42-1.81 1.168-1.206 1.746-2.742 1.746-4.606 0-1.864-.584-3.4-1.745-4.606-1.167-1.206-2.637-1.81-4.42-1.81-1.785 0-3.254.604-4.421 1.81-1.168 1.206-1.746 2.742-1.746 4.606 0 1.864.584 3.4 1.746 4.606Zm17.824-4.608 8.473 7.55h-2.147l-7.768-6.799v6.8h-1.574V27.668h1.574v6.734l7.674-6.734h2.241l-8.473 7.55v.006Zm20.263-6.117h-8.517v5.412h8.357v1.431h-8.357v5.39h8.517v1.431h-10.097V27.665h10.097v1.442Zm14.679 13.668-1.597-3.62h-8.725l-1.597 3.62h-1.668l6.667-15.107h1.943l6.645 15.107h-1.668Zm-5.957-13.467-3.721 8.417h7.443l-3.722-8.417Zm21.996 13.467h-1.574v-6.827h-9.64v6.827h-1.574V27.668h1.574v6.849h9.64v-6.849h1.574v15.107Z"/>
</svg>
